<mxfile host="app.diagrams.net" modified="2023-07-20T02:36:15.031Z" agent="Mozilla/5.0 (Macintosh; Intel Mac OS X 10_15_7) AppleWebKit/537.36 (KHTML, like Gecko) Chrome/114.0.0.0 Safari/537.36" version="21.6.3" etag="joIIpIdYSWgmUQ9qzHFW" type="github">
  <diagram name="第 1 页" id="H231-Ux9pNwl8gaWqKaK">
    <mxGraphModel>
      <root>
        <mxCell id="0" />
        <mxCell id="1" parent="0" />
      </root>
    </mxGraphModel>
  </diagram>
</mxfile>
